<svg xmlns="http://www.w3.org/2000/svg" xmlns:xlink="http://www.w3.org/1999/xlink" width="500" zoomAndPan="magnify" viewBox="0 0 375 374.999991" height="500" preserveAspectRatio="xMidYMid meet" version="1.0"><defs><g/></defs><g fill="#ff3131" fill-opacity="1"><g transform="translate(108.389952, 173.260381)"><g><path d="M 3.578125 0 L 3.578125 -30.609375 L 14.140625 -30.609375 L 14.140625 -27.375 L 14.265625 -27.375 C 17.003906 -30.125 19.925781 -31.5 23.03125 -31.5 C 24.539062 -31.5 26.039062 -31.300781 27.53125 -30.90625 C 29.019531 -30.507812 30.453125 -29.890625 31.828125 -29.046875 C 33.203125 -28.210938 34.316406 -27.03125 35.171875 -25.5 C 36.023438 -23.96875 36.453125 -22.1875 36.453125 -20.15625 L 36.453125 0 L 25.890625 0 L 25.890625 -17.296875 C 25.890625 -18.890625 25.378906 -20.28125 24.359375 -21.46875 C 23.347656 -22.664062 22.03125 -23.265625 20.40625 -23.265625 C 18.8125 -23.265625 17.367188 -22.644531 16.078125 -21.40625 C 14.785156 -20.175781 14.140625 -18.804688 14.140625 -17.296875 L 14.140625 0 Z M 3.578125 0 "/></g></g></g><g fill="#ff3131" fill-opacity="1"><g transform="translate(146.027699, 173.260381)"><g><path d="M 34.546875 -13.84375 L 12.34375 -13.84375 C 12.34375 -11.695312 13.039062 -10.101562 14.4375 -9.0625 C 15.832031 -8.03125 17.34375 -7.515625 18.96875 -7.515625 C 20.675781 -7.515625 22.023438 -7.742188 23.015625 -8.203125 C 24.015625 -8.660156 25.148438 -9.566406 26.421875 -10.921875 L 34.0625 -7.09375 C 30.882812 -1.769531 25.59375 0.890625 18.1875 0.890625 C 13.582031 0.890625 9.628906 -0.6875 6.328125 -3.84375 C 3.023438 -7.007812 1.375 -10.816406 1.375 -15.265625 C 1.375 -19.722656 3.023438 -23.539062 6.328125 -26.71875 C 9.628906 -29.90625 13.582031 -31.5 18.1875 -31.5 C 23.039062 -31.5 26.988281 -30.097656 30.03125 -27.296875 C 33.070312 -24.492188 34.59375 -20.484375 34.59375 -15.265625 C 34.59375 -14.554688 34.578125 -14.082031 34.546875 -13.84375 Z M 12.640625 -19.6875 L 24.28125 -19.6875 C 24.039062 -21.28125 23.410156 -22.503906 22.390625 -23.359375 C 21.378906 -24.210938 20.082031 -24.640625 18.5 -24.640625 C 16.75 -24.640625 15.351562 -24.179688 14.3125 -23.265625 C 13.28125 -22.347656 12.722656 -21.15625 12.640625 -19.6875 Z M 12.640625 -19.6875 "/></g></g></g><g fill="#ff3131" fill-opacity="1"><g transform="translate(180.205829, 173.260381)"><g><path d="M 22.375 0 L 15.21875 0 L -1.1875 -30.609375 L 10.984375 -30.609375 L 18.4375 -14.078125 L 25.765625 -30.609375 L 33.046875 -30.609375 L 40.390625 -14.078125 L 47.84375 -30.609375 L 60.015625 -30.609375 L 43.609375 0 L 36.453125 0 L 29.40625 -15.8125 Z M 22.375 0 "/></g></g></g><g fill="#ff3131" fill-opacity="1"><g transform="translate(237.229405, 173.260381)"><g><path d="M 16.875 -31.5 C 18.625 -31.5 20.351562 -31.300781 22.0625 -30.90625 C 23.78125 -30.507812 25.054688 -30.109375 25.890625 -29.703125 L 27.140625 -29.109375 L 23.6875 -22.1875 C 21.300781 -23.457031 19.03125 -24.09375 16.875 -24.09375 C 15.6875 -24.09375 14.84375 -23.960938 14.34375 -23.703125 C 13.851562 -23.453125 13.609375 -22.96875 13.609375 -22.25 C 13.609375 -22.09375 13.625 -21.929688 13.65625 -21.765625 C 13.695312 -21.609375 13.773438 -21.460938 13.890625 -21.328125 C 14.015625 -21.191406 14.125 -21.070312 14.21875 -20.96875 C 14.320312 -20.863281 14.492188 -20.753906 14.734375 -20.640625 C 14.972656 -20.523438 15.160156 -20.4375 15.296875 -20.375 C 15.441406 -20.3125 15.671875 -20.21875 15.984375 -20.09375 C 16.304688 -19.976562 16.546875 -19.890625 16.703125 -19.828125 C 16.859375 -19.773438 17.125 -19.6875 17.5 -19.5625 C 17.882812 -19.445312 18.175781 -19.367188 18.375 -19.328125 C 19.601562 -18.972656 20.675781 -18.578125 21.59375 -18.140625 C 22.507812 -17.703125 23.472656 -17.101562 24.484375 -16.34375 C 25.503906 -15.59375 26.289062 -14.640625 26.84375 -13.484375 C 27.40625 -12.328125 27.6875 -11.015625 27.6875 -9.546875 C 27.6875 -2.585938 22.851562 0.890625 13.1875 0.890625 C 11 0.890625 8.921875 0.550781 6.953125 -0.125 C 4.984375 -0.800781 3.5625 -1.472656 2.6875 -2.140625 L 1.375 -3.21875 L 5.671875 -10.4375 C 5.984375 -10.15625 6.398438 -9.828125 6.921875 -9.453125 C 7.441406 -9.078125 8.375 -8.5625 9.71875 -7.90625 C 11.070312 -7.25 12.25 -6.921875 13.25 -6.921875 C 15.4375 -6.921875 16.53125 -7.65625 16.53125 -9.125 C 16.53125 -9.800781 16.25 -10.328125 15.6875 -10.703125 C 15.132812 -11.085938 14.191406 -11.515625 12.859375 -11.984375 C 11.523438 -12.460938 10.476562 -12.898438 9.71875 -13.296875 C 7.8125 -14.296875 6.300781 -15.421875 5.1875 -16.671875 C 4.070312 -17.921875 3.515625 -19.582031 3.515625 -21.65625 C 3.515625 -24.757812 4.71875 -27.175781 7.125 -28.90625 C 9.53125 -30.632812 12.78125 -31.5 16.875 -31.5 Z M 16.875 -31.5 "/></g></g></g><g fill="#000000" fill-opacity="1"><g transform="translate(92.876058, 230.218823)"><g><path d="M 35.078125 -26.8125 C 37.941406 -23.6875 39.375 -19.859375 39.375 -15.328125 C 39.375 -10.796875 37.941406 -6.957031 35.078125 -3.8125 C 32.210938 -0.675781 28.570312 0.890625 24.15625 0.890625 C 20.101562 0.890625 16.765625 -0.378906 14.140625 -2.921875 L 14.140625 15.515625 L 3.578125 15.515625 L 3.578125 -30.609375 L 14.015625 -30.609375 L 14.015625 -27.140625 L 14.140625 -27.140625 C 16.765625 -30.046875 20.101562 -31.5 24.15625 -31.5 C 28.570312 -31.5 32.210938 -29.9375 35.078125 -26.8125 Z M 26.09375 -10.140625 C 27.46875 -11.492188 28.15625 -13.222656 28.15625 -15.328125 C 28.15625 -17.441406 27.5 -19.160156 26.1875 -20.484375 C 24.875 -21.816406 23.144531 -22.484375 21 -22.484375 C 18.925781 -22.484375 17.222656 -21.804688 15.890625 -20.453125 C 14.566406 -19.109375 13.90625 -17.398438 13.90625 -15.328125 C 13.90625 -13.222656 14.585938 -11.492188 15.953125 -10.140625 C 17.328125 -8.785156 19.007812 -8.109375 21 -8.109375 C 23.03125 -8.109375 24.726562 -8.785156 26.09375 -10.140625 Z M 26.09375 -10.140625 "/></g></g></g><g fill="#000000" fill-opacity="1"><g transform="translate(131.826093, 230.218823)"><g><path d="M 3.578125 0 L 3.578125 -51.296875 L 14.140625 -51.296875 L 14.140625 0 Z M 3.578125 0 "/></g></g></g><g fill="#000000" fill-opacity="1"><g transform="translate(147.751721, 230.218823)"><g><path d="M 5.671875 -3.78125 C 2.804688 -6.90625 1.375 -10.734375 1.375 -15.265625 C 1.375 -19.804688 2.804688 -23.644531 5.671875 -26.78125 C 8.535156 -29.925781 12.171875 -31.5 16.578125 -31.5 C 20.640625 -31.5 23.984375 -30.226562 26.609375 -27.6875 L 26.609375 -30.609375 L 37.171875 -30.609375 L 37.171875 0 L 26.71875 0 L 26.71875 -3.453125 L 26.609375 -3.453125 C 23.984375 -0.554688 20.640625 0.890625 16.578125 0.890625 C 12.171875 0.890625 8.535156 -0.664062 5.671875 -3.78125 Z M 14.640625 -20.453125 C 13.273438 -19.109375 12.59375 -17.378906 12.59375 -15.265625 C 12.59375 -13.160156 13.25 -11.441406 14.5625 -10.109375 C 15.875 -8.773438 17.601562 -8.109375 19.75 -8.109375 C 21.8125 -8.109375 23.507812 -8.785156 24.84375 -10.140625 C 26.175781 -11.492188 26.84375 -13.203125 26.84375 -15.265625 C 26.84375 -17.378906 26.15625 -19.109375 24.78125 -20.453125 C 23.414062 -21.804688 21.738281 -22.484375 19.75 -22.484375 C 17.71875 -22.484375 16.015625 -21.804688 14.640625 -20.453125 Z M 14.640625 -20.453125 "/></g></g></g><g fill="#000000" fill-opacity="1"><g transform="translate(186.701756, 230.218823)"><g><path d="M 3.578125 0 L 3.578125 -30.609375 L 14.140625 -30.609375 L 14.140625 -27.375 L 14.265625 -27.375 C 17.003906 -30.125 19.925781 -31.5 23.03125 -31.5 C 24.539062 -31.5 26.039062 -31.300781 27.53125 -30.90625 C 29.019531 -30.507812 30.453125 -29.890625 31.828125 -29.046875 C 33.203125 -28.210938 34.316406 -27.03125 35.171875 -25.5 C 36.023438 -23.96875 36.453125 -22.1875 36.453125 -20.15625 L 36.453125 0 L 25.890625 0 L 25.890625 -17.296875 C 25.890625 -18.890625 25.378906 -20.28125 24.359375 -21.46875 C 23.347656 -22.664062 22.03125 -23.265625 20.40625 -23.265625 C 18.8125 -23.265625 17.367188 -22.644531 16.078125 -21.40625 C 14.785156 -20.175781 14.140625 -18.804688 14.140625 -17.296875 L 14.140625 0 Z M 3.578125 0 "/></g></g></g><g fill="#000000" fill-opacity="1"><g transform="translate(224.339503, 230.218823)"><g><path d="M 34.546875 -13.84375 L 12.34375 -13.84375 C 12.34375 -11.695312 13.039062 -10.101562 14.4375 -9.0625 C 15.832031 -8.03125 17.34375 -7.515625 18.96875 -7.515625 C 20.675781 -7.515625 22.023438 -7.742188 23.015625 -8.203125 C 24.015625 -8.660156 25.148438 -9.566406 26.421875 -10.921875 L 34.0625 -7.09375 C 30.882812 -1.769531 25.59375 0.890625 18.1875 0.890625 C 13.582031 0.890625 9.628906 -0.6875 6.328125 -3.84375 C 3.023438 -7.007812 1.375 -10.816406 1.375 -15.265625 C 1.375 -19.722656 3.023438 -23.539062 6.328125 -26.71875 C 9.628906 -29.90625 13.582031 -31.5 18.1875 -31.5 C 23.039062 -31.5 26.988281 -30.097656 30.03125 -27.296875 C 33.070312 -24.492188 34.59375 -20.484375 34.59375 -15.265625 C 34.59375 -14.554688 34.578125 -14.082031 34.546875 -13.84375 Z M 12.640625 -19.6875 L 24.28125 -19.6875 C 24.039062 -21.28125 23.410156 -22.503906 22.390625 -23.359375 C 21.378906 -24.210938 20.082031 -24.640625 18.5 -24.640625 C 16.75 -24.640625 15.351562 -24.179688 14.3125 -23.265625 C 13.28125 -22.347656 12.722656 -21.15625 12.640625 -19.6875 Z M 12.640625 -19.6875 "/></g></g></g><g fill="#000000" fill-opacity="1"><g transform="translate(258.517633, 230.218823)"><g><path d="M 5.375 -30.609375 L 5.375 -42 L 15.921875 -42 L 15.921875 -30.609375 L 22.375 -30.609375 L 22.375 -22.546875 L 15.921875 -22.546875 L 15.921875 -12.828125 C 15.921875 -10.003906 16.71875 -8.59375 18.3125 -8.59375 C 18.707031 -8.59375 19.125 -8.671875 19.5625 -8.828125 C 20 -8.984375 20.335938 -9.144531 20.578125 -9.3125 L 20.9375 -9.546875 L 23.5625 -1.015625 C 21.289062 0.253906 18.707031 0.890625 15.8125 0.890625 C 13.820312 0.890625 12.109375 0.546875 10.671875 -0.140625 C 9.242188 -0.835938 8.160156 -1.773438 7.421875 -2.953125 C 6.691406 -4.128906 6.164062 -5.363281 5.84375 -6.65625 C 5.53125 -7.945312 5.375 -9.328125 5.375 -10.796875 L 5.375 -22.546875 L 0.953125 -22.546875 L 0.953125 -30.609375 Z M 5.375 -30.609375 "/></g></g></g><path stroke-linecap="butt" transform="matrix(1.29451, 0, 0, 1.29451, 66.81342, 257.529797)" fill="none" stroke-linejoin="miter" d="M -0.000710781 5.001205 L 84.433382 5.001205 " stroke="#292929" stroke-width="10" stroke-opacity="1" stroke-miterlimit="4"/><path stroke-linecap="butt" transform="matrix(0, 1.29451, -1.29451, 0, 79.751886, 159.848325)" fill="none" stroke-linejoin="miter" d="M -0.000516376 4.998522 L 82.463116 4.998522 " stroke="#292929" stroke-width="10" stroke-opacity="1" stroke-miterlimit="4"/><path stroke-linecap="butt" transform="matrix(-1.29451, 0, 0, -1.29451, 296.789047, 117.461983)" fill="none" stroke-linejoin="miter" d="M -0.0000122743 5.000889 L 84.434081 5.000889 " stroke="#292929" stroke-width="10" stroke-opacity="1" stroke-miterlimit="4"/><path stroke-linecap="butt" transform="matrix(0, -1.29451, 1.29451, 0, 283.850583, 215.143447)" fill="none" stroke-linejoin="miter" d="M -0.000837211 5.000839 L 82.462795 5.000839 " stroke="#292929" stroke-width="10" stroke-opacity="1" stroke-miterlimit="4"/></svg>